<?xml version="1.0" encoding="utf-8"?>
<!-- Generator: Adobe Illustrator 26.0.3, SVG Export Plug-In . SVG Version: 6.00 Build 0)  -->
<svg version="1.1" xmlns="http://www.w3.org/2000/svg" xmlns:xlink="http://www.w3.org/1999/xlink" x="0px" y="0px"
	 viewBox="0 0 1000 1000" style="enable-background:new 0 0 1000 1000;" xml:space="preserve">
<style type="text/css">
	.st0{fill:#FBCD28;}
	.st1{fill-rule:evenodd;clip-rule:evenodd;fill:#00B6DC;}
	.st2{fill-rule:evenodd;clip-rule:evenodd;fill:#004D67;}
	.st3{fill-rule:evenodd;clip-rule:evenodd;fill:#FBCD28;}
</style>
<g id="Layer_2">
</g>
<g id="Layer_1">
	<g transform="translate(-15.362 -57.771)">
		<g transform="matrix(.54991 0 0 .54991 15.362 57.772)">
			<path class="st0" d="M1445.25,744.02h-52c-7.9,0-17.56,5.6-21.53,12.42l-82.31,148.26c-3.91,6.83-10.36,6.83-14.32,0
				l-82.29-148.26c-3.93-6.82-13.62-12.42-21.5-12.42h-52.13c-7.89,0-11.13,5.6-7.19,12.42l154.88,273.53
				c2.3,4.03,7.99,7.33,12.64,7.33h5.24c4.64,0,10.35-3.29,12.7-7.31l154.97-273.55C1456.37,749.62,1453.15,744.02,1445.25,744.02
				L1445.25,744.02z"/>
			<path class="st1" d="M1456.23,771.14h-51.17c-8.36,0-18.58,5.91-22.79,14.07l-92.55,162.94c-4.12,6.33-10.96,6.33-15.16-0.91
				L1182,784.31c-4.18-7.26-14.44-13.17-22.82-13.17h-51.03c-8.36,0-11.77,5.91-7.59,13.17l157.18,272.22h0.04l6.36,11.07
				c2.73,4.75,9.45,8.64,14.93,8.64h6.17c5.47,0,12.2-3.88,14.96-8.62l6.43-11.1h0.07l12.68-21.95l144.44-250.27
				C1467.99,777.05,1464.6,771.14,1456.23,771.14L1456.23,771.14z"/>
			<path class="st2" d="M1405.09,771.14c-8.36,0-18.58,5.91-22.79,14.07l-92.55,162.94c-4.12,6.33-10.96,6.33-15.16-0.91
				l-92.55-162.93c-4.18-7.26-14.44-13.17-22.82-13.17h-38.88l146.56,258.83c2.3,4.03,7.99,7.33,12.64,7.33h5.24
				c4.64,0,10.35-3.29,12.7-7.31l146.64-258.85L1405.09,771.14L1405.09,771.14z"/>
			<path class="st1" d="M995.99,905.89l-91.32-62.12c-6.57-4.48-17.35-11.81-23.95-16.29l-95.48-64.94
				c-6.59-4.49-11.98-1.63-11.98,6.33v56.3c0,7.97,5.4,18.15,11.98,22.63l53.46,36.39c6.6,4.48,17.39,11.81,23.96,16.3l26.92,18.32
				c6.6,4.51,6.6,11.84,0,16.32l-26.92,18.32c-6.57,4.48-17.37,11.83-23.96,16.29l-53.46,36.39c-6.59,4.47-11.98,14.64-11.98,22.63
				v56.3c0,7.97,5.4,10.81,11.98,6.34l95.47-64.96c6.6-4.48,17.37-11.81,23.95-16.3l91.29-62.11c4.54-3.06,8.26-10.05,8.26-15.53
				v-11.02C1004.22,915.98,1000.52,908.98,995.99,905.89z"/>
			<path class="st3" d="M995.99,870.46l-91.32-62.12c-6.57-4.48-17.35-11.82-23.95-16.29l-95.48-64.96
				c-6.59-4.48-11.98-1.62-11.98,6.34v56.28c0,7.99,5.4,18.16,11.98,22.64l53.46,36.39c6.6,4.48,17.39,11.81,23.96,16.3l26.92,18.32
				c6.6,4.51,6.6,11.84,0,16.3l-26.92,18.34c-6.57,4.48-17.37,11.83-23.96,16.29l-53.46,36.39c-6.59,4.47-11.98,14.64-11.98,22.63
				v56.28c0,7.98,5.4,10.82,11.98,6.35L880.72,991c6.6-4.48,17.37-11.81,23.95-16.3l91.29-62.11c4.54-3.06,8.26-10.05,8.26-15.53
				v-11.02C1004.22,880.55,1000.52,873.56,995.99,870.46z"/>
			<path class="st2" d="M785.25,1055.96l95.47-64.95c6.6-4.48,17.37-11.81,23.95-16.3l91.29-62.11c1.26-0.84,2.41-2.02,3.48-3.35
				c-1.06-1.32-2.2-2.5-3.45-3.35l-91.32-62.12c-6.57-4.48-17.35-11.81-23.95-16.29l-95.48-64.94c-6.59-4.49-11.98-1.63-11.98,6.33
				v20.86c0,7.99,5.4,18.16,11.98,22.64l53.46,36.39c6.6,4.48,17.39,11.81,23.96,16.3l26.92,18.32c6.6,4.51,6.6,11.84,0,16.3
				l-14.04,9.56l14.04,9.56c6.6,4.51,6.6,11.84,0,16.32l-26.92,18.32c-6.57,4.48-17.37,11.83-23.96,16.29l-53.46,36.39
				c-6.59,4.47-11.98,14.64-11.98,22.63v20.86C773.27,1057.59,778.66,1060.43,785.25,1055.96L785.25,1055.96z"/>
			<path class="st1" d="M361.1,905.89l91.34-62.12c6.56-4.48,17.34-11.81,23.93-16.29l95.47-64.94c6.59-4.49,11.97-1.63,11.97,6.33
				v56.3c0,7.97-5.38,18.15-11.97,22.63l-53.45,36.39c-6.6,4.48-17.4,11.81-23.99,16.3l-26.89,18.32c-6.61,4.51-6.61,11.84,0,16.32
				l26.89,18.32c6.59,4.48,17.39,11.83,23.99,16.29l53.45,36.39c6.59,4.47,11.97,14.64,11.97,22.63v56.3
				c0,7.97-5.38,10.81-11.97,6.34l-95.47-64.95c-6.6-4.48-17.37-11.81-23.93-16.3l-91.32-62.11c-4.54-3.06-8.25-10.05-8.25-15.53
				v-11.02C352.87,915.98,356.56,908.98,361.1,905.89z"/>
			<path class="st3" d="M361.1,870.46l91.34-62.12c6.56-4.48,17.34-11.82,23.93-16.29l95.47-64.96c6.59-4.48,11.97-1.62,11.97,6.34
				v56.28c0,7.99-5.38,18.16-11.97,22.64l-53.45,36.39c-6.6,4.48-17.4,11.81-23.99,16.3l-26.89,18.32c-6.61,4.51-6.61,11.84,0,16.3
				l26.89,18.34c6.59,4.48,17.39,11.83,23.99,16.29l53.45,36.39c6.59,4.47,11.97,14.64,11.97,22.63v56.28
				c0,7.98-5.38,10.82-11.97,6.35l-95.47-64.94c-6.6-4.48-17.37-11.81-23.93-16.3l-91.32-62.11c-4.54-3.06-8.25-10.05-8.25-15.53
				v-11.02C352.87,880.55,356.56,873.56,361.1,870.46z"/>
			<path class="st2" d="M571.84,1055.96l-95.47-64.95c-6.6-4.48-17.37-11.81-23.93-16.3l-91.32-62.11
				c-1.25-0.84-2.39-2.02-3.46-3.35c1.05-1.32,2.19-2.5,3.45-3.35l91.34-62.12c6.56-4.48,17.34-11.81,23.93-16.29l95.47-64.94
				c6.59-4.49,11.97-1.63,11.97,6.33v20.86c0,7.99-5.38,18.16-11.97,22.64l-53.45,36.39c-6.6,4.48-17.4,11.81-23.99,16.3
				l-26.89,18.32c-6.61,4.51-6.61,11.84,0,16.3l14.03,9.56l-14.03,9.56c-6.61,4.51-6.61,11.84,0,16.32l26.89,18.32
				c6.59,4.48,17.39,11.83,23.99,16.29l53.45,36.39c6.59,4.47,11.97,14.64,11.97,22.63v20.86
				C583.81,1057.59,578.43,1060.43,571.84,1055.96L571.84,1055.96z"/>
		</g>
	</g>
</g>
</svg>
